<svg width="24" height="24" viewBox="0 0 24 24" fill="none" xmlns="http://www.w3.org/2000/svg">
<path fill-rule="evenodd" clip-rule="evenodd" d="M12.3072 1.75C14.4979 1.74999 16.2186 1.74998 17.562 1.93059C18.9386 2.11568 20.0309 2.50272 20.8891 3.36091C21.7473 4.21911 22.1343 5.31137 22.3194 6.68802C22.5 8.03144 22.5 9.7521 22.5 11.9428V12.0572C22.5 14.2479 22.5 15.9686 22.3194 17.312C22.1343 18.6886 21.7473 19.7809 20.8891 20.6391C20.0309 21.4973 18.9386 21.8843 17.562 22.0694C16.2186 22.25 14.4979 22.25 12.3072 22.25H12.1928C10.0021 22.25 8.28144 22.25 6.93802 22.0694C5.56137 21.8843 4.46911 21.4973 3.61091 20.6391C2.75272 19.7809 2.36568 18.6886 2.18059 17.312C1.99998 15.9686 1.99999 14.2479 2 12.0572V11.9428C1.99999 9.75212 1.99998 8.03144 2.18059 6.68802C2.36568 5.31137 2.75272 4.21911 3.61091 3.36091C4.46911 2.50272 5.56137 2.11568 6.93802 1.93059C8.28144 1.74998 10.0021 1.74999 12.1928 1.75H12.3072ZM7.25 15.25C7.66421 15.25 8 15.5858 8 16V18C8 18.4142 7.66421 18.75 7.25 18.75C6.83579 18.75 6.5 18.4142 6.5 18V16C6.5 15.5858 6.83579 15.25 7.25 15.25ZM13 15C13 14.5858 12.6642 14.25 12.25 14.25C11.8358 14.25 11.5 14.5858 11.5 15V18C11.5 18.4142 11.8358 18.75 12.25 18.75C12.6642 18.75 13 18.4142 13 18V15ZM17.25 12.25C17.6642 12.25 18 12.5858 18 13V18C18 18.4142 17.6642 18.75 17.25 18.75C16.8358 18.75 16.5 18.4142 16.5 18V13C16.5 12.5858 16.8358 12.25 17.25 12.25ZM16.1089 5.25228C16.3402 5.24173 16.6193 5.26295 16.8947 5.41952C17.1804 5.58187 17.3389 5.81911 17.4391 6.04105C17.5214 6.22343 17.585 6.44564 17.643 6.64856L17.6529 6.68297L17.971 7.79345C18.0851 8.19164 17.8548 8.60692 17.4566 8.721C17.0584 8.83508 16.6431 8.60476 16.529 8.20656L16.3823 7.69448C14.1486 10.9059 10.572 12.25 6.25 12.25C5.83579 12.25 5.5 11.9142 5.5 11.5C5.5 11.0858 5.83579 10.75 6.25 10.75C10.2026 10.75 13.2134 9.5578 15.0959 6.91538L14.3721 7.03478C13.9634 7.1022 13.5774 6.82554 13.51 6.41685C13.4426 6.00815 13.7192 5.6222 14.1279 5.55478L15.3956 5.34568L15.4288 5.34021C15.6662 5.30098 15.9046 5.2616 16.1089 5.25228Z" fill="currentColor"/>
</svg>
