<svg width="32" height="40" viewBox="0 0 32 40" fill="none" xmlns="http://www.w3.org/2000/svg">
<g opacity="0.3" clip-path="url(#clip0_616_193)" filter="url(#filter0_d_616_193)">
<path d="M16 1.3335V30.6668M22.6667 6.66683H12.6667C11.429 6.66683 10.242 7.1585 9.36684 8.03367C8.49167 8.90883 8 10.0958 8 11.3335C8 12.5712 8.49167 13.7582 9.36684 14.6333C10.242 15.5085 11.429 16.0002 12.6667 16.0002H19.3333C20.571 16.0002 21.758 16.4918 22.6332 17.367C23.5083 18.2422 24 19.4292 24 20.6668C24 21.9045 23.5083 23.0915 22.6332 23.9667C21.758 24.8418 20.571 25.3335 19.3333 25.3335H8" stroke="white" stroke-width="3" stroke-linecap="round" stroke-linejoin="round"/>
</g>
<defs>
<filter id="filter0_d_616_193" x="-4" y="0" width="40" height="40" filterUnits="userSpaceOnUse" color-interpolation-filters="sRGB">
<feFlood flood-opacity="0" result="BackgroundImageFix"/>
<feColorMatrix in="SourceAlpha" type="matrix" values="0 0 0 0 0 0 0 0 0 0 0 0 0 0 0 0 0 0 127 0" result="hardAlpha"/>
<feOffset dy="4"/>
<feGaussianBlur stdDeviation="2"/>
<feComposite in2="hardAlpha" operator="out"/>
<feColorMatrix type="matrix" values="0 0 0 0 0 0 0 0 0 0 0 0 0 0 0 0 0 0 0.25 0"/>
<feBlend mode="normal" in2="BackgroundImageFix" result="effect1_dropShadow_616_193"/>
<feBlend mode="normal" in="SourceGraphic" in2="effect1_dropShadow_616_193" result="shape"/>
</filter>
<clipPath id="clip0_616_193">
<rect width="32" height="32" fill="white"/>
</clipPath>
</defs>
</svg>
