<svg width="24" height="24" viewBox="0 0 24 24" fill="none" xmlns="http://www.w3.org/2000/svg">
<path d="M16 4.25049C18.5578 4.25049 20.5084 4.70572 21.5195 5.01905C22.3186 5.34557 22.7499 6.13598 22.75 6.92725V16.6831C22.7499 17.5306 22.2837 18.2268 21.6904 18.6587C21.1365 19.062 20.4095 19.2842 19.6826 19.19C18.7875 19.021 17.4632 18.8599 16 18.8599C13.6966 18.8599 12.3677 19.2879 10.5127 19.563C8.78314 19.8195 6.81344 19.8896 3.63574 19.2496L2.9834 19.1119C1.95787 18.8857 1.25012 17.9691 1.25 16.939V6.92139C1.25017 5.44277 2.6335 4.41198 4.02441 4.68799L4.58496 4.79444C7.31829 5.28386 8.99031 5.17556 10.4746 4.9419C12.0595 4.69239 13.6323 4.25049 16 4.25049ZM2.75 16.938C2.75012 17.2843 2.98805 17.5758 3.30664 17.646L3.92676 17.7779C4.68366 17.9305 5.36375 18.0402 5.98242 18.1148C5.81412 16.3344 4.47904 14.8937 2.75 14.566V16.938ZM21.25 15.0669C19.8679 15.3154 18.6382 16.2302 18.2324 17.4664C18.8237 17.5254 19.3514 17.6043 19.8154 17.6919L19.9385 17.7076C20.2291 17.7276 20.5478 17.6341 20.8076 17.4449C21.1021 17.2304 21.2499 16.9495 21.25 16.6822V15.0669ZM12 9.00049C10.3434 9.00076 9.00098 10.3438 9.00098 12.0005C9.00098 13.6572 10.3434 15.0003 12 15.0005C13.6569 15.0005 15.001 13.6574 15.001 12.0005C15.001 10.3437 13.6569 9.00049 12 9.00049ZM18.5225 5.89893C18.6991 7.49189 19.9031 8.94193 21.25 9.35303V6.92627C21.2499 6.67088 21.1289 6.49661 20.9775 6.41944L20.9111 6.39209C20.3881 6.23 19.5918 6.03197 18.5225 5.89893ZM3.73242 6.1587C3.20921 6.05489 2.75028 6.44766 2.75 6.92041V8.92139C4.10185 8.64076 5.2612 7.63699 5.73047 6.48487C5.29075 6.43038 4.82409 6.36004 4.32617 6.271L3.73242 6.1587Z" fill="currentColor"/>
</svg>
