<svg width="25" height="24" viewBox="0 0 25 24" fill="none" xmlns="http://www.w3.org/2000/svg">
<path d="M17.1586 14.8079L13.2161 16.1907C13.223 16.211 13.2286 16.2319 13.233 16.2534C13.2761 16.4663 13.2987 16.6871 13.2987 16.9134C13.2987 17.3089 13.0584 17.6826 12.6717 17.8038L9.83295 18.6936C9.12969 18.9141 8.37685 18.8365 7.72606 18.4795L5.3761 16.9727L5.90659 16.1286L8.21218 17.6083C8.62797 17.8317 9.09943 17.8766 9.53979 17.7385L12.2406 16.8919V16.7584C12.1685 15.7777 11.4181 14.9918 10.4857 14.9918H9.32083C8.95035 14.9918 8.58463 14.8972 8.25252 14.715L5.97122 13.4636C5.71547 13.3233 5.43297 13.25 5.1462 13.25H2.75V20.3223L9.69484 22.6587C10.2083 22.8315 10.7591 22.7573 11.2273 22.4511L20.25 16.5979C19.5349 14.6745 17.9503 14.5283 17.1586 14.8079Z" fill="currentColor"/>
<path fill-rule="evenodd" clip-rule="evenodd" d="M8.85371 13.6191L7.92987 13.1123C7.18227 11.9205 6.75 10.5107 6.75 9C6.75 4.71979 10.2198 1.25 14.5 1.25C18.7802 1.25 22.25 4.71979 22.25 9C22.25 11.0487 21.4551 12.9118 20.1569 14.2976C19.864 14.0513 19.5454 13.8603 19.2112 13.7219C18.3258 13.3553 17.413 13.3928 16.7437 13.6288L12.8747 14.9858C12.3429 14.2489 11.503 13.7418 10.4857 13.7418H9.32083C9.1649 13.7418 9.00544 13.7023 8.85371 13.6191ZM12.6358 4.83934C12.9543 4.60048 13.3358 4.42808 13.75 4.33359V3.5H15.25V4.33451C16.0387 4.51515 16.7347 4.98026 17.0646 5.68027L15.7078 6.31972C15.5905 6.07097 15.1684 5.75 14.5 5.75C14.0943 5.75 13.7559 5.87427 13.5358 6.03934C13.3159 6.20423 13.25 6.37478 13.25 6.5C13.25 6.62522 13.3159 6.79576 13.5358 6.96066C13.7559 7.12572 14.0943 7.25 14.5 7.25C15.1989 7.25 15.8604 7.46151 16.3642 7.83934C16.8682 8.21734 17.25 8.79679 17.25 9.5C17.25 10.2032 16.8682 10.7827 16.3642 11.1607C16.0457 11.3995 15.6642 11.5719 15.25 11.6664V12.5H13.75V11.6655C12.9613 11.4849 12.2653 11.0198 11.9354 10.3197L13.2922 9.68027C13.4095 9.92902 13.8316 10.25 14.5 10.25C14.9057 10.25 15.2441 10.1257 15.4642 9.96066C15.6841 9.79576 15.75 9.62522 15.75 9.5C15.75 9.37478 15.6841 9.20423 15.4642 9.03934C15.2441 8.87427 14.9057 8.75 14.5 8.75C13.8011 8.75 13.1396 8.53848 12.6358 8.16066C12.1318 7.78266 11.75 7.20321 11.75 6.5C11.75 5.79679 12.1318 5.21734 12.6358 4.83934Z" fill="currentColor"/>
</svg>
