<svg width="24" height="24" viewBox="0 0 24 24" fill="none" xmlns="http://www.w3.org/2000/svg">
<g clip-path="url(#clip0_246_337)">
<path d="M12.4177 7.89961C12.2506 8.29889 11.7911 8.48737 11.3918 8.31975C10.9916 8.15264 10.8036 7.69308 10.9707 7.2938C11.1378 6.89405 11.5973 6.70556 11.9976 6.87267C12.3968 7.04034 12.5849 7.49986 12.4177 7.89961ZM15.885 9.84525L13.446 5.89683L12.9075 5.02486C12.8844 4.98718 12.8502 4.95753 12.8096 4.93991C12.769 4.9223 12.724 4.91757 12.6806 4.92637C12.6787 4.92637 12.6768 4.92684 12.6749 4.92731L7.7513 6.05236L7.15097 6.18937C7.11744 6.19708 7.08623 6.21267 7.05993 6.23484C7.03362 6.25701 7.01298 6.28513 6.9997 6.31687L5.21437 10.5811L1.73981 18.8808C1.72054 18.9332 1.72219 18.9909 1.74443 19.042C1.76667 19.0932 1.80778 19.1338 1.8592 19.1553L2.70881 19.5112L10.3615 22.7151C10.388 22.7261 10.4165 22.7318 10.4452 22.7317C10.4868 22.7317 10.5275 22.7198 10.5625 22.6972C10.5974 22.6747 10.6251 22.6426 10.6422 22.6047L12.0108 19.3351L15.3208 11.4274V11.427L15.9007 10.0426C15.9141 10.0109 15.9197 9.97639 15.9169 9.94203C15.9142 9.90768 15.9033 9.87448 15.885 9.84525Z" fill="#FF3C63"/>
<path d="M13.446 5.89683L7.98965 7.18078L2.70881 19.5112L1.8592 19.1553C1.80777 19.1338 1.76665 19.0932 1.74441 19.042C1.72217 18.9909 1.72052 18.9332 1.73981 18.8808L5.21437 10.5811L6.9997 6.31687C7.01297 6.28514 7.03362 6.25702 7.05992 6.23484C7.08623 6.21267 7.11744 6.19708 7.15097 6.18937L7.75129 6.05236L12.6806 4.92638C12.7239 4.91756 12.769 4.92227 12.8095 4.93989C12.8501 4.9575 12.8843 4.98717 12.9075 5.02486L13.446 5.89683Z" fill="#FF557E"/>
<path d="M15.3215 11.4277L12.011 19.3354L10.6424 22.605C10.6253 22.6428 10.5976 22.675 10.5627 22.6975C10.5278 22.7201 10.4871 22.732 10.4455 22.732C10.4168 22.7321 10.3883 22.7264 10.3618 22.7154C9.43697 21.5275 8.88563 20.0342 8.88563 18.4121C8.88563 14.7348 11.718 11.7193 15.321 11.4277H15.3215Z" fill="#EA2F5C"/>
<path d="M13.186 10.6773C13.2791 10.7163 13.3529 10.7907 13.3912 10.8841C13.4295 10.9775 13.4291 11.0822 13.3901 11.1753L13.0411 12.0093L9.81751 19.7095C9.79821 19.7556 9.77002 19.7975 9.73454 19.8327C9.69906 19.8679 9.65699 19.8958 9.61073 19.9147C9.56448 19.9337 9.51495 19.9433 9.46496 19.9431C9.41497 19.9429 9.36552 19.9329 9.31942 19.9135L9.0212 19.7886L4.5856 17.932C4.5395 17.9127 4.49765 17.8845 4.46244 17.849C4.42723 17.8136 4.39936 17.7715 4.3804 17.7253C4.36145 17.679 4.3518 17.6295 4.35198 17.5795C4.35217 17.5296 4.36221 17.4801 4.38151 17.434L7.95413 8.8998C7.99311 8.8067 8.06748 8.73289 8.16087 8.69462C8.25426 8.65634 8.35903 8.65673 8.45213 8.6957L13.186 10.6773Z" fill="#E0E0E3"/>
<path d="M13.0412 12.0097L9.67065 20.0611L9.02133 19.7891C8.93068 19.3358 8.88522 18.8745 8.88563 18.4122C8.88568 15.5579 10.5925 13.102 13.0412 12.0097Z" fill="#D1D1D1"/>
<path d="M13.8723 6.27075C13.8429 6.32053 13.802 6.36247 13.7529 6.393L13.3519 5.74411C13.9237 4.72655 14.2272 3.72426 14.2314 2.83514C14.2352 2.0978 14.0255 1.45083 13.6558 1.06026C13.3305 0.715874 12.9422 0.622593 12.5902 0.804327C12.0369 1.08975 11.6935 2.2305 11.6231 4.01728C11.566 5.46675 11.7121 6.83536 11.7135 6.84919C11.7236 6.94329 11.696 7.03757 11.6366 7.11133C11.5773 7.18508 11.4912 7.2323 11.3971 7.24261C11.3843 7.24401 11.3709 7.24453 11.3581 7.24453C11.1783 7.24453 11.0237 7.10897 11.0042 6.9263C10.9975 6.86873 10.851 5.4982 10.9095 3.99689C10.9937 1.84861 11.4361 0.596999 12.2629 0.170296C12.8989 -0.15797 13.631 -0.00478242 14.1743 0.569905C15.112 1.56169 15.3822 3.70908 13.8723 6.27075ZM10.67 13.1236C10.5931 12.9361 10.4479 12.7897 10.2609 12.7115L9.98766 12.5971L10.2016 12.0861C10.2367 11.9991 10.236 11.9017 10.1999 11.8152C10.1637 11.7286 10.095 11.6598 10.0084 11.6236C9.9219 11.5873 9.82458 11.5867 9.73755 11.6216C9.65051 11.6566 9.58076 11.7245 9.54338 11.8105L9.32823 12.3245C9.06882 12.233 8.78888 12.2385 8.53229 12.3436C8.39595 12.399 8.27197 12.481 8.1675 12.5847C8.06304 12.6883 7.98018 12.8117 7.92371 12.9476C7.86649 13.0832 7.83674 13.2289 7.83619 13.376C7.83563 13.5232 7.86428 13.6691 7.92048 13.8051C8.03396 14.082 8.24846 14.2982 8.52451 14.4137L9.06202 14.6387C9.16229 14.6807 9.24015 14.7592 9.28135 14.8597C9.32255 14.9603 9.32213 15.0708 9.28018 15.1711C9.19356 15.378 8.95482 15.4759 8.74782 15.3892L8.47913 15.2768L8.47909 15.2767L8.47899 15.2767L7.87665 15.0246C7.86521 15.0197 7.85701 15.0115 7.85232 15C7.84763 14.9886 7.84763 14.9769 7.85241 14.9655C7.88896 14.8783 7.88933 14.78 7.85346 14.6925C7.81758 14.6049 7.7484 14.5352 7.66112 14.4987C7.57384 14.4621 7.47562 14.4618 7.38806 14.4976C7.30051 14.5335 7.23079 14.6027 7.19424 14.69C7.11601 14.8769 7.11521 15.0831 7.19204 15.2706C7.26887 15.4581 7.41413 15.6045 7.60107 15.6828L7.87435 15.7972L7.66041 16.3083C7.62535 16.3953 7.62597 16.4926 7.66212 16.5792C7.69827 16.6657 7.76706 16.7346 7.85359 16.7708C7.94012 16.807 8.03743 16.8077 8.12447 16.7727C8.2115 16.7377 8.28126 16.6698 8.31863 16.5838L8.53337 16.0709C8.65221 16.1128 8.77731 16.1343 8.90335 16.1344C9.34163 16.1344 9.75873 15.8756 9.9383 15.4467C10.1769 14.8769 9.90732 14.2192 9.33751 13.9806L8.79995 13.7556C8.75059 13.7351 8.7058 13.705 8.66816 13.6671C8.63052 13.6291 8.60078 13.5841 8.58066 13.5346C8.56027 13.4852 8.54987 13.4322 8.55007 13.3788C8.55027 13.3254 8.56107 13.2725 8.58184 13.2233C8.60234 13.1739 8.63242 13.1291 8.67035 13.0915C8.70828 13.0538 8.7533 13.0241 8.8028 13.0039C8.8522 12.9835 8.90515 12.9731 8.95859 12.9733C9.01203 12.9735 9.0649 12.9843 9.11415 13.0051L9.38288 13.1176H9.38298L9.98537 13.3698C9.9968 13.3746 10.005 13.3828 10.0096 13.3942C10.0143 13.4057 10.0143 13.4173 10.0096 13.4288C9.97301 13.516 9.97263 13.6143 10.0085 13.7018C10.0444 13.7894 10.1136 13.8591 10.2009 13.8956C10.2881 13.9322 10.3864 13.9325 10.4739 13.8967C10.5615 13.8608 10.6312 13.7916 10.6677 13.7043C10.7065 13.6125 10.7267 13.5139 10.7271 13.4142C10.7275 13.3145 10.7081 13.2158 10.67 13.1236Z" fill="#FFCE00"/>
<path d="M15.893 24C18.9791 24 21.481 21.4982 21.481 18.412C21.481 15.3259 18.9791 12.824 15.893 12.824C12.8068 12.824 10.305 15.3259 10.305 18.412C10.305 21.4982 12.8068 24 15.893 24Z" fill="#FFCE00"/>
<path d="M15.893 22.2188C17.9957 22.2188 19.7002 20.5143 19.7002 18.4117C19.7002 16.309 17.9957 14.6045 15.893 14.6045C13.7904 14.6045 12.0858 16.309 12.0858 18.4117C12.0858 20.5143 13.7904 22.2188 15.893 22.2188Z" fill="#FFDA2D"/>
<path d="M15.893 21.2822C17.4784 21.2822 18.7636 19.997 18.7636 18.4116C18.7636 16.8262 17.4784 15.541 15.893 15.541C14.3076 15.541 13.0223 16.8262 13.0223 18.4116C13.0223 19.997 14.3076 21.2822 15.893 21.2822Z" fill="#FFE571"/>
<path d="M16.1616 18.1165H15.6698C15.5935 18.1164 15.5204 18.086 15.4664 18.0321C15.4125 17.9782 15.3821 17.905 15.3821 17.8287C15.3821 17.7525 15.4125 17.6793 15.4664 17.6254C15.5204 17.5715 15.5935 17.5411 15.6698 17.541H16.4498C16.4548 17.6337 16.4957 17.7209 16.5638 17.7839C16.632 17.8469 16.7221 17.8809 16.8149 17.8786C16.9077 17.8763 16.996 17.838 17.0609 17.7716C17.1259 17.7053 17.1625 17.6163 17.1629 17.5235C17.1629 17.1397 16.8507 16.8275 16.4669 16.8275H16.2724V16.4155C16.2724 16.3208 16.2349 16.2301 16.168 16.1632C16.101 16.0963 16.0103 16.0587 15.9157 16.0587C15.8211 16.0587 15.7303 16.0963 15.6634 16.1632C15.5965 16.2301 15.5589 16.3208 15.5589 16.4155V16.834C15.0589 16.8893 14.6685 17.3141 14.6685 17.8287C14.6685 18.3808 15.1176 18.83 15.6697 18.83H16.1616C16.3202 18.83 16.4493 18.9591 16.4493 19.1177C16.4493 19.2763 16.3202 19.4054 16.1616 19.4054H15.3816C15.3767 19.3127 15.3357 19.2256 15.2676 19.1626C15.1994 19.0995 15.1094 19.0656 15.0165 19.0678C14.9237 19.0701 14.8355 19.1085 14.7705 19.1748C14.7055 19.2411 14.6689 19.3302 14.6685 19.423C14.6685 19.8068 14.9807 20.119 15.3645 20.119H15.559V20.531C15.559 20.6256 15.5966 20.7164 15.6635 20.7833C15.7304 20.8502 15.8211 20.8878 15.9157 20.8878C16.0104 20.8878 16.1011 20.8502 16.168 20.7833C16.2349 20.7164 16.2725 20.6256 16.2725 20.531V20.1125C16.7726 20.0571 17.1629 19.6324 17.1629 19.1177C17.1629 18.5656 16.7138 18.1165 16.1616 18.1165Z" fill="#FFCE00"/>
<path d="M19.6285 8.11547H18.2828C18.1882 8.11547 18.0974 8.07788 18.0305 8.01097C17.9636 7.94406 17.926 7.85332 17.926 7.7587C17.926 7.66408 17.9636 7.57334 18.0305 7.50643C18.0974 7.43952 18.1882 7.40193 18.2828 7.40193H19.6285C19.7231 7.40193 19.8138 7.43952 19.8808 7.50643C19.9477 7.57334 19.9852 7.66408 19.9852 7.7587C19.9852 7.85332 19.9477 7.94406 19.8808 8.01097C19.8138 8.07788 19.7231 8.11547 19.6285 8.11547ZM21.9168 10.7452H20.5711C20.4765 10.7452 20.3857 10.7076 20.3188 10.6407C20.2519 10.5738 20.2143 10.4831 20.2143 10.3884C20.2143 10.2938 20.2519 10.2031 20.3188 10.1362C20.3857 10.0693 20.4765 10.0317 20.5711 10.0317H21.9168C21.9637 10.0317 22.0101 10.0409 22.0533 10.0588C22.0966 10.0768 22.136 10.103 22.1691 10.1362C22.2022 10.1693 22.2285 10.2086 22.2464 10.2519C22.2643 10.2952 22.2736 10.3416 22.2736 10.3885C22.2736 10.4353 22.2643 10.4817 22.2464 10.525C22.2285 10.5683 22.2022 10.6076 22.1691 10.6407C22.1359 10.6738 22.0966 10.7001 22.0533 10.7181C22.01 10.736 21.9636 10.7452 21.9168 10.7452ZM5.58023 5.86247H4.23454C4.13992 5.86247 4.04918 5.82488 3.98227 5.75797C3.91536 5.69106 3.87778 5.60032 3.87778 5.5057C3.87778 5.41108 3.91536 5.32034 3.98227 5.25343C4.04918 5.18652 4.13992 5.14893 4.23454 5.14893H5.58023C5.67485 5.14893 5.7656 5.18652 5.8325 5.25343C5.89941 5.32034 5.937 5.41108 5.937 5.5057C5.937 5.60032 5.89941 5.69106 5.8325 5.75797C5.7656 5.82488 5.67485 5.86247 5.58023 5.86247ZM9.0142 2.3092H7.66851C7.57389 2.3092 7.48315 2.27161 7.41624 2.20471C7.34933 2.1378 7.31175 2.04705 7.31175 1.95243C7.31175 1.85781 7.34933 1.76707 7.41624 1.70016C7.48315 1.63326 7.57389 1.59567 7.66851 1.59567H9.0142C9.10882 1.59567 9.19956 1.63326 9.26647 1.70016C9.33338 1.76707 9.37096 1.85781 9.37097 1.95243C9.37096 2.04705 9.33338 2.1378 9.26647 2.20471C9.19956 2.27161 9.10882 2.3092 9.0142 2.3092Z" fill="#FF3C63"/>
</g>
<defs>
<clipPath id="clip0_246_337">
<rect width="24" height="24" fill="white"/>
</clipPath>
</defs>
</svg>
