<svg width="24" height="24" viewBox="0 0 24 24" fill="none" xmlns="http://www.w3.org/2000/svg">
<path d="M8.14981 13.3611L6.21001 19.8855L8.83173 17.9288L9.95837 21L11.8468 14.6487L8.14981 13.3611ZM15.8502 13.3611L17.79 19.8855L15.1683 17.9288L14.0416 21L12.1534 14.6487L15.8502 13.3611Z" fill="#FF725C"/>
<path d="M18.487 9.20508C18.487 9.86121 17.5932 10.368 17.4009 10.9601C17.2017 11.5737 17.62 12.5078 17.2482 13.0185C16.8728 13.5343 15.8527 13.4232 15.3368 13.7987C14.8261 14.1704 14.6186 15.177 14.005 15.3762C13.4129 15.5684 12.656 14.8823 11.9999 14.8823C11.3438 14.8823 10.5868 15.5684 9.99481 15.3762C9.38122 15.177 9.17368 14.1704 8.66286 13.7987C8.147 13.4232 7.12688 13.5343 6.75141 13.0185C6.37969 12.5078 6.79805 11.5737 6.59883 10.9601C6.40665 10.368 5.51274 9.86121 5.51274 9.20508C5.51274 8.54895 6.40653 8.04211 6.59883 7.45008C6.79805 6.83648 6.37981 5.90238 6.75153 5.39168C7.127 4.87582 8.14712 4.98691 8.66298 4.61145C9.17368 4.23973 9.38122 3.2332 9.99481 3.03398C10.5868 2.8418 11.3438 3.52781 11.9999 3.52781C12.656 3.52781 13.4129 2.8418 14.005 3.03398C14.6186 3.2332 14.8261 4.23973 15.3369 4.61145C15.8528 4.98691 16.8729 4.87582 17.2484 5.39168C17.6201 5.90238 17.2017 6.83648 17.4009 7.45008C17.5931 8.04211 18.487 8.54895 18.487 9.20508Z" fill="#FFCC5B"/>
<path d="M12 12.8334C14.0039 12.8334 15.6284 11.209 15.6284 9.20508C15.6284 7.20119 14.0039 5.57672 12 5.57672C9.99612 5.57672 8.37164 7.20119 8.37164 9.20508C8.37164 11.209 9.99612 12.8334 12 12.8334Z" fill="#EC9922"/>
<path d="M12 7.11422L12.595 8.46715L14.0654 8.6148L12.9626 9.59871L13.2765 11.0429L12 10.2981L10.7235 11.0429L11.0374 9.59871L9.93457 8.6148L11.405 8.46715L12 7.11422Z" fill="#FFCC5B"/>
</svg>
