<svg width="163" height="28" viewBox="0 0 163 28" fill="none" xmlns="http://www.w3.org/2000/svg">
<path d="M150.74 16.022C150.772 15.5774 150.881 15.1416 151.061 14.734C151.181 14.3139 151.401 13.9294 151.702 13.614C151.98 13.2995 152.305 13.0302 152.665 12.816C153.114 12.6038 153.605 12.4938 154.101 12.4938C154.598 12.4938 155.089 12.6038 155.538 12.816C155.925 12.9892 156.258 13.2651 156.5 13.614C156.802 13.9266 157.019 14.3125 157.128 14.734C157.266 15.1484 157.323 15.5858 157.295 16.022H150.74ZM146.11 21.79C146.479 22.9057 147.078 23.9312 147.867 24.8C148.712 25.679 149.755 26.3416 150.907 26.732C152.293 27.2266 153.747 27.496 155.217 27.53C155.858 27.556 156.499 27.5042 157.128 27.376C157.727 27.3591 158.319 27.2505 158.885 27.054C159.373 26.886 159.848 26.886 160.489 26.732C160.81 26.564 161.284 26.41 161.605 26.242L160.963 22.042C160.249 22.3475 159.499 22.5638 158.732 22.686C157.811 22.8596 156.879 22.9626 155.942 22.994C154.707 23.0001 153.493 22.6712 152.428 22.042C152.014 21.7523 151.672 21.3701 151.43 20.9256C151.188 20.481 151.052 19.9862 151.033 19.48H162.693V17.618C162.825 15.0895 162.031 12.5998 160.461 10.618C159.68 9.80536 158.734 9.17095 157.687 8.75786C156.641 8.34478 155.517 8.1627 154.394 8.224C153.296 8.18591 152.203 8.40144 151.2 8.854C150.215 9.34898 149.281 9.93981 148.411 10.618C147.637 11.4975 147.023 12.5069 146.598 13.6C146.065 14.9798 145.791 16.4463 145.789 17.926C145.505 19.2124 145.617 20.5548 146.11 21.776M132.539 19.536C132.562 20.6115 132.67 21.6834 132.86 22.742C133.068 23.6587 133.447 24.5279 133.976 25.304C134.581 26.008 135.347 26.5554 136.207 26.9C137.32 27.3616 138.518 27.581 139.722 27.544C140.691 27.5972 141.662 27.4883 142.595 27.222C143.31 27.0867 144.007 26.8707 144.673 26.578L143.878 22.574C143.404 22.742 142.762 22.896 142.288 23.05C141.713 23.1883 141.122 23.2448 140.531 23.218C139.401 23.218 138.606 22.896 138.285 22.252C137.856 21.4681 137.639 20.5845 137.658 19.69V13.292H143.878V8.966H137.658V3.52001L132.539 4.15V19.536ZM129.192 8.63H124.073V22.756C123.753 22.756 123.446 22.91 122.958 22.91H121.842C120.559 22.91 119.764 22.588 119.443 21.79C118.912 20.6352 118.69 19.3611 118.801 18.094V8.47601H113.697V18.584C113.727 19.7657 113.835 20.9442 114.017 22.112C114.214 23.1018 114.655 24.0261 115.301 24.8C115.905 25.6111 116.735 26.2248 117.686 26.564C118.914 27.0143 120.214 27.2326 121.521 27.208C122.963 27.1843 124.401 27.0768 125.831 26.886C126.946 26.732 128.076 26.41 129.192 26.242V8.63ZM94.6728 26.914H99.7775V12.816C100.098 12.816 100.419 12.648 100.893 12.648H102.009C103.292 12.648 104.087 12.97 104.408 13.614C104.942 14.7079 105.164 15.9291 105.049 17.142V26.942H110.154V16.652C110.13 15.5256 110.023 14.4025 109.833 13.292C109.652 12.2663 109.215 11.3032 108.564 10.492C107.95 9.68455 107.117 9.07205 106.165 8.72801C104.935 8.28802 103.636 8.07459 102.33 8.09801C100.889 8.12398 99.4502 8.22679 98.0201 8.406C96.9044 8.57401 95.7886 8.896 94.6728 9.05V26.914ZM90.8653 1.112C90.2766 0.571905 89.508 0.272409 88.7104 0.272409C87.9129 0.272409 87.1443 0.571905 86.5556 1.112C86.2626 1.39605 86.0281 1.73526 85.8657 2.11026C85.7032 2.48526 85.616 2.8887 85.6088 3.29756C85.6017 3.70641 85.6749 4.11267 85.8242 4.49314C85.9735 4.87362 86.1959 5.22084 86.4789 5.51501C86.7619 5.80917 87.0998 6.0445 87.4734 6.20757C87.847 6.37064 88.2489 6.45825 88.6562 6.4654C89.0635 6.47255 89.4682 6.3991 89.8473 6.24924C90.2263 6.09938 90.5722 5.87605 90.8653 5.592C91.1656 5.30201 91.4046 4.95415 91.5678 4.56924C91.731 4.18434 91.8151 3.77033 91.8151 3.35201C91.8151 2.93369 91.731 2.51967 91.5678 2.13477C91.4046 1.74986 91.1656 1.40199 90.8653 1.112ZM91.1861 8.64401H86.0675V26.914H91.1861V8.64401ZM67.7131 26.914H72.8177V15C72.7855 14.4008 72.6777 13.808 72.497 13.236C72.8844 12.9841 73.3226 12.8216 73.7801 12.76C74.1352 12.6225 74.5162 12.5652 74.8959 12.592C75.3174 12.565 75.7393 12.6384 76.1271 12.8063C76.5149 12.9742 76.8577 13.2317 77.1274 13.558C77.6618 14.6519 77.8839 15.8731 77.769 17.086V26.886H82.8736V16.652C82.8498 15.5256 82.7425 14.4025 82.5528 13.292C82.3629 12.2956 81.9841 11.345 81.437 10.492C80.839 9.73876 80.0752 9.13495 79.2055 8.72801C78.0862 8.28942 76.8922 8.07538 75.6908 8.09801C73.8394 8.08864 72.0396 8.71059 70.5862 9.86201C69.9872 9.33208 69.2769 8.94448 68.5081 8.72801C66.7962 8.23019 64.9955 8.1202 63.2361 8.406C62.5339 8.43793 61.8371 8.54589 61.158 8.72801C60.5164 8.89601 59.8888 8.896 59.2472 9.05C58.7279 9.22329 58.1891 9.33145 57.6433 9.372V27.012H62.7619V12.97C63.0827 12.97 63.3895 12.816 63.7103 12.816H64.6727C65.0929 12.7884 65.5137 12.8602 65.9013 13.0255C66.2888 13.1908 66.6323 13.4452 66.9042 13.768C67.4443 14.86 67.6667 16.0828 67.5457 17.296L67.7131 26.914ZM43.0686 19.55C43.0917 20.6255 43.199 21.6974 43.3894 22.756C43.6039 23.6707 43.982 24.5388 44.5052 25.318C45.1131 26.0255 45.8839 26.5734 46.7506 26.914C47.8624 27.3801 49.0612 27.5998 50.2653 27.558C51.2341 27.6096 52.2048 27.5008 53.1384 27.236C53.8481 27.0987 54.5404 26.8827 55.2026 26.592L54.4076 22.588C53.9334 22.756 53.2918 22.91 52.8176 23.064C52.2427 23.203 51.651 23.2596 51.0603 23.232C50.6336 23.2955 50.1977 23.2388 49.8013 23.0682C49.4048 22.8977 49.0633 22.6199 48.8148 22.266C48.3852 21.4821 48.1687 20.5985 48.1872 19.704V13.292H54.4076V8.966H48.229V3.52001L43.0686 4.15V19.55ZM30.7812 22.91C29.8538 22.7217 28.944 22.4547 28.0615 22.112L27.0992 26.312C29.0841 27.0931 31.2017 27.4783 33.3335 27.446C35.3442 27.5544 37.3423 27.0675 39.0797 26.046C39.7492 25.577 40.2904 24.9466 40.6536 24.2126C41.0167 23.4787 41.1901 22.6648 41.1579 21.846C41.198 21.1358 41.0887 20.425 40.8371 19.76C40.6804 19.1403 40.3458 18.5804 39.8747 18.15C39.3575 17.6374 38.7648 17.2077 38.1174 16.876C37.1906 16.3804 36.2306 15.95 35.2443 15.588C34.7701 15.434 34.2959 15.112 33.8496 14.944C33.5609 14.8291 33.2925 14.6684 33.0546 14.468L32.5804 13.992C32.5804 13.824 32.413 13.67 32.413 13.502C32.413 12.55 33.208 12.228 34.8119 12.228C35.6248 12.177 36.4398 12.2864 37.2108 12.55L39.1216 13.026L40.0839 9.02201C39.3071 8.72948 38.5036 8.5138 37.685 8.37801C36.6307 8.17578 35.5634 8.04946 34.4911 8.00001C32.6291 7.88061 30.7788 8.37196 29.2191 9.40001C28.6083 9.86853 28.1167 10.4756 27.7846 11.1716C27.4524 11.8675 27.2893 12.6326 27.3084 13.404C27.321 14.1658 27.4288 14.9231 27.6292 15.658C27.9027 16.2529 28.2806 16.7935 28.7449 17.254C29.2647 17.7227 29.8586 18.1012 30.5023 18.374C31.1438 18.696 31.897 19.018 32.7338 19.34C33.5616 19.6492 34.3638 20.0237 35.1327 20.46C35.3622 20.5446 35.5609 20.6968 35.7027 20.8966C35.8446 21.0965 35.923 21.3347 35.9277 21.58C35.9406 21.8109 35.8869 22.0406 35.7731 22.2417C35.6593 22.4428 35.4903 22.6068 35.2861 22.714C34.6091 22.9039 33.9109 23.0074 33.208 23.022C32.4106 23.1266 31.6005 23.0743 30.8231 22.868M15.3278 8.322C14.6863 8.322 14.2121 8.47601 13.5705 8.47601C12.929 8.47601 12.6082 8.644 12.1758 8.79801C11.7434 8.95201 11.3808 8.96601 11.06 9.12001L11.7016 13.32C12.3994 12.992 13.1628 12.8292 13.9331 12.844C14.7764 12.7045 15.6313 12.6482 16.4855 12.676C17.4589 12.5976 18.427 12.8817 19.2051 13.474C19.6955 14.0603 19.9755 14.7949 20.0001 15.56V16.05C19.5873 15.9111 19.1515 15.8541 18.717 15.882C18.0894 15.882 17.6012 15.728 16.9736 15.728C16.0038 15.7522 15.038 15.8599 14.0866 16.05C13.1892 16.2236 12.3268 16.5453 11.5342 17.002C10.8264 17.456 10.215 18.046 9.73507 18.738C9.28789 19.5759 9.07125 20.5182 9.10745 21.468C9.11268 22.4496 9.27756 23.4238 9.5956 24.352C9.94683 25.1215 10.4956 25.7835 11.1856 26.27C11.9219 26.732 12.7342 27.0591 13.5845 27.236C14.6392 27.4263 15.707 27.534 16.7783 27.558C18.3821 27.5344 19.9835 27.4269 21.5761 27.236C22.5989 27.0938 23.6103 26.8786 24.6027 26.592V15.854C24.5879 14.8337 24.4805 13.8168 24.2819 12.816C24.1208 11.8996 23.6768 11.0573 23.0127 10.408C22.3077 9.79434 21.4939 9.3194 20.6138 9.00801C19.3603 8.68686 18.072 8.52228 16.7783 8.51801C16.4576 8.21001 15.9834 8.21001 15.3836 8.36401M15.3836 22.952C15.0665 22.7978 14.8132 22.5368 14.668 22.2145C14.5227 21.8922 14.4947 21.5289 14.5887 21.188C14.5944 20.8406 14.7063 20.5034 14.9094 20.222C15.0932 19.9254 15.3744 19.7026 15.7044 19.592C16.0497 19.4073 16.4299 19.2976 16.8202 19.27C17.2944 19.27 17.7825 19.102 18.2149 19.102H19.3586C19.6839 19.1276 20.0061 19.1838 20.3209 19.27V23.274C20.0001 23.274 19.5259 23.428 19.2051 23.428H17.8104C16.9848 23.4582 16.1636 23.2952 15.4115 22.952M7.908 23.106C7.43045 23.0733 6.9604 22.9695 6.51329 22.798C6.18494 22.677 5.90551 22.4506 5.71831 22.154C5.53752 21.8617 5.42765 21.5308 5.39752 21.188C5.39752 20.712 5.23016 20.39 5.23016 19.9V-0.00799561L0 0.790005V20.824C0.0126854 21.6919 0.120258 22.5557 0.320783 23.4C0.494383 24.1405 0.882642 24.8128 1.43655 25.332C2.08477 25.9068 2.84457 26.3406 3.66808 26.606C4.86729 26.9378 6.10621 27.1027 7.35012 27.096L7.908 23.106Z" fill="#F2007D"/>
</svg>
